<svg id="Layer_2" data-name="Layer 2" xmlns="http://www.w3.org/2000/svg" viewBox="0 0 317.09 310.59">
  <defs class="fill-transparent">
    <style>
      .cls-1 {
        fill:#f1e9d2;
      }
    </style>
  </defs>
  <g id="Layer_1-2" data-name="Layer 1">
    <g>
      <rect class="cls-1" x=".08" width="316.9" height="310.59"/>
      <g>
        <polygon fill="#172C49" points="158.7 23.84 232.38 65.65 232.27 113.67 228.55 115.76 179.51 143.36 175.06 140.83 163 133.97 163 98.12 179.6 107.57 200.68 95.69 200.71 83.51 127.03 41.68 127.12 0 179.49 0 158.73 11.7 158.7 23.84"/>
        <polygon fill="#172C49" points="232.53 0 232.41 51.69 200.82 33.77 200.87 11.77 180.17 0 232.53 0"/>
        <polygon fill="#172C49" points="42.4 125.29 116.1 83.5 126.86 89.59 126.86 113.42 110.26 122.82 142.01 140.65 142.02 140.65 153.96 133.89 158.42 131.37 158.5 131.33 158.49 95.57 158.49 83.98 158.49 71.69 116.08 47.68 42.38 89.48 31.64 83.41 31.64 59.55 52.71 47.63 72.15 58.62 103.74 40.71 52.71 11.84 0 41.65 .01 101.3 42.4 125.29"/>
        <polygon fill="#172C49" points="137.44 162.11 105.86 179.99 105.81 161.16 105.79 161.15 105.46 160.96 84.69 149.31 73.95 155.44 74.31 238.89 32 263.01 .08 245.09 .08 161.7 29.93 144.68 30.08 180.46 10.68 191.52 10.76 215.36 31.89 227.21 42.61 221.1 42.25 137.66 84.59 113.51 87.87 115.36 105.73 125.38 137.38 143.16 137.38 143.27 137.39 148.26 137.44 162.11"/>
        <polygon fill="#172C49" points="116.44 298.86 137.16 310.59 84.81 310.59 84.81 259.01 116.44 276.86 116.44 298.86"/>
        <polygon fill="#172C49" points="190.21 268.78 190.21 310.59 137.85 310.59 158.58 298.85 158.58 286.71 84.81 245.05 84.81 197.04 105.89 185.12 137.46 167.24 137.5 167.22 142 169.76 154.15 176.64 154.15 212.43 137.5 203.02 116.44 214.94 116.44 227.12 190.21 268.78"/>
        <polygon fill="#172C49" points="274.64 185.16 200.97 226.99 190.21 220.91 190.21 197.05 206.69 187.71 174.95 169.88 163.18 176.55 158.59 179.15 158.54 179.18 158.56 214.93 158.56 223.95 158.57 238.81 201.01 262.79 274.68 220.97 285.42 227.03 285.44 250.89 264.37 262.82 244.93 251.83 213.35 269.77 264.4 298.62 317.09 268.77 317.04 209.12 274.64 185.16"/>
        <polygon fill="#172C49" points="316.98 65.6 316.98 149.09 287.04 166.04 287 130.26 306.43 119.27 306.43 95.43 285.34 83.5 274.61 89.58 274.7 173.02 232.29 197.03 221.6 190.99 211.24 185.13 179.63 167.24 179.6 167.22 179.6 162.28 179.58 148.5 211.21 130.65 211.22 149.31 221.89 155.35 232.29 161.24 232.3 161.24 243.05 155.14 242.96 71.7 285.35 47.71 316.98 65.6"/>
      </g>
    </g>
  </g>
</svg>

