<svg id="Layer_2" fill="#172c49" data-name="Layer 2" xmlns="http://www.w3.org/2000/svg" viewBox="0 0 458.37 55.64">
  <g id="Layer_1-2" data-name="Layer 1">
    <g>
      <g>
        <path d="M19.92,13.92h68.71L98.96,0H16.44C7.38,0,0,7.36,0,16.39v2.01c0,9.03,7.38,16.38,16.44,16.38h36.56c1.36,0,2.48,1.11,2.48,2.47v2.01c0,1.36-1.11,2.47-2.48,2.47H9.5L0,55.64h56.48c9.06,0,16.42-7.34,16.42-16.38v-2.01c0-9.03-7.36-16.38-16.42-16.38H19.92c-1.36,0-2.48-1.11-2.48-2.47v-2.01c0-1.36,1.11-2.47,2.48-2.47Z"/>
        <path d="M233.14,0h-54.59v55.64h54.59c11.5,0,20.93-9.39,20.93-20.86v-13.9c0-11.49-9.43-20.87-20.93-20.87ZM236.62,32.96c0,4.82-3.95,8.77-8.78,8.77h-31.87V13.92h31.87c4.83,0,8.78,3.93,8.78,8.75v10.29Z"/>
        <path d="M279.39,34.78h35.34l8.05-13.9h-43.39v-6.95h47.4l8.05-13.92h-72.9v55.64h64.85l8.05-13.9h-55.45v-6.95Z"/>
        <path d="M342.75,0v55.64h17.43V0h-17.43Z"/>
        <path d="M440.97,0l-27.76,33.72L385.45,0h-17.41v55.64h17.43V21.95l27.74,33.69,27.73-33.69v33.69h17.43V0h-17.39Z"/>
      </g>
      <path d="M105.49,55.64h65.11L131.93,0h-17.45l-38.68,55.64h21.22l26.19-37.67,16.53,23.77h-24.58l-9.66,13.9Z"/>
    </g>
  </g>
</svg>